<svg width="1000" height="1000" viewBox="0 0 1000 1000" fill="none" xmlns="http://www.w3.org/2000/svg">
<path d="M342.596 87L270.216 156.085" stroke="#EB0000" stroke-width="15" stroke-linecap="round"/>
<path d="M224.347 306.75L270.563 155.352" stroke="#EB0000" stroke-width="15" stroke-linecap="round"/>
<path d="M262.319 589.026L224 307.483" stroke="#EB0000" stroke-width="15" stroke-linecap="round"/>
<path d="M373.021 809.801L262.248 587.967" stroke="#EB0000" stroke-width="15" stroke-linecap="round"/>
<path d="M394.522 766.456L408.865 855.701" stroke="#EB0000" stroke-width="15" stroke-linecap="round"/>
<path d="M464.643 903.511L408.865 855.701" stroke="#EB0000" stroke-width="15" stroke-linecap="round"/>
<path d="M499.703 911.479L466.236 903.511" stroke="#EB0000" stroke-width="16" stroke-linecap="round"/>
<path d="M400.896 815.86L373.804 811.079" stroke="#EB0000" stroke-width="15" stroke-linecap="round"/>
<path d="M381.772 492.347L298.902 442.943" stroke="#EB0000" stroke-width="15" stroke-linecap="round"/>
<path d="M421.614 551.312L381.772 492.347" stroke="#EB0000" stroke-width="15" stroke-linecap="round"/>
<path d="M440.738 630.995L422 551" stroke="#EB0000" stroke-width="15" stroke-linecap="round"/>
<path d="M361.055 576.811L437.55 619.839" stroke="#EB0000" stroke-width="10" stroke-linecap="round"/>
<path d="M303.683 521.033L361.055 576.811" stroke="#EB0000" stroke-width="10" stroke-linecap="round"/>
<path d="M281.372 466.848L303.683 521.033" stroke="#EB0000" stroke-width="10" stroke-linecap="round"/>
<path d="M274.997 399.915L281.372 466.848" stroke="#EB0000" stroke-width="10" stroke-linecap="round"/>
<path d="M274.997 399.915L297 443" stroke="#EB0000" stroke-width="15" stroke-linecap="round"/>
<path d="M345.118 87.5576L471.017 213.457" stroke="#EB0000" stroke-width="15" stroke-linecap="round"/>
<path d="M471.109 212.98L496.516 213.457" stroke="#EB0000" stroke-width="15" stroke-linecap="round"/>
<path d="M341 176H353L365.5 184.5L382.5 200L417 240.03L419.5 249.5L411.5 258L382.5 265L331.958 289.5L310.492 305L275 336.5V311L279 289.5L284.5 268.5L292 245L297 232.5L302.5 220.5L308 208.5L314 200L320.5 190L331.958 179.5L341 176Z" fill="#EB0000"/>
<path d="M261 540L285 573.5L309 601L334.575 619L353.5 629.777L387 644.629L371 648.5H349L334.575 644.629L323.748 641.753L315.818 636.5L306.5 629.777L297 622L285 607L265 577.5L261 540Z" fill="#EB0000"/>
<path d="M291 648.683L318.613 665.472L344.388 677.936L368.395 683.065L385.382 685.026L414.157 685.451L403.77 693.155L387.858 699.909L376.24 701.546L367.53 702.796L360.186 701.443L351.389 699.455L342.138 696.763L328.867 689.63L305.372 674.497L291 648.683Z" fill="#EB0000"/>
<path d="M657.108 87L729.487 156.085" stroke="#EB0000" stroke-width="15" stroke-linecap="round"/>
<path d="M775.356 306.75L729.14 155.352" stroke="#EB0000" stroke-width="15" stroke-linecap="round"/>
<path d="M737.385 589.026L775.703 307.483" stroke="#EB0000" stroke-width="15" stroke-linecap="round"/>
<path d="M626.682 809.801L737.455 587.967" stroke="#EB0000" stroke-width="15" stroke-linecap="round"/>
<path d="M605.182 766.456L590.839 855.701" stroke="#EB0000" stroke-width="15" stroke-linecap="round"/>
<path d="M535.06 903.511L590.839 855.701" stroke="#EB0000" stroke-width="15" stroke-linecap="round"/>
<path d="M500 911.479L533.467 903.511" stroke="#EB0000" stroke-width="16" stroke-linecap="round"/>
<path d="M598.807 815.86L625.899 811.079" stroke="#EB0000" stroke-width="15" stroke-linecap="round"/>
<path d="M617.931 492.347L700.801 442.943" stroke="#EB0000" stroke-width="15" stroke-linecap="round"/>
<path d="M578.089 551.312L617.931 492.347" stroke="#EB0000" stroke-width="15" stroke-linecap="round"/>
<path d="M558.965 630.995L577.703 551" stroke="#EB0000" stroke-width="15" stroke-linecap="round"/>
<path d="M638.648 576.811L562.153 619.839" stroke="#EB0000" stroke-width="10" stroke-linecap="round"/>
<path d="M696.02 521.033L638.648 576.811" stroke="#EB0000" stroke-width="10" stroke-linecap="round"/>
<path d="M718.331 466.848L696.02 521.033" stroke="#EB0000" stroke-width="10" stroke-linecap="round"/>
<path d="M724.706 399.915L718.331 466.848" stroke="#EB0000" stroke-width="10" stroke-linecap="round"/>
<path d="M724.706 399.915L702.703 443" stroke="#EB0000" stroke-width="15" stroke-linecap="round"/>
<path d="M654.585 87.5576L528.686 213.457" stroke="#EB0000" stroke-width="15" stroke-linecap="round"/>
<path d="M528.594 212.98L503.187 213.457" stroke="#EB0000" stroke-width="15" stroke-linecap="round"/>
<path d="M658.703 176H646.703L634.203 184.5L617.203 200L582.703 240.03L580.203 249.5L588.203 258L617.203 265L667.745 289.5L689.211 305L724.703 336.5V311L720.703 289.5L715.203 268.5L707.703 245L702.703 232.5L697.203 220.5L691.703 208.5L685.703 200L679.203 190L667.745 179.5L658.703 176Z" fill="#EB0000"/>
<path d="M738.703 540L714.703 573.5L690.703 601L665.129 619L646.203 629.777L612.703 644.629L628.703 648.5H650.703L665.129 644.629L675.955 641.753L683.885 636.5L693.203 629.777L702.703 622L714.703 607L734.703 577.5L738.703 540Z" fill="#EB0000"/>
<path d="M708.703 648.683L681.091 665.472L655.315 677.936L631.308 683.065L614.321 685.026L585.546 685.451L595.933 693.155L611.845 699.909L623.463 701.546L632.173 702.796L639.517 701.443L648.314 699.455L657.566 696.763L670.836 689.63L694.331 674.497L708.703 648.683Z" fill="#EB0000"/>
<ellipse cx="499.789" cy="399" rx="20" ry="81" fill="#EB0000"/>
<ellipse cx="556.289" cy="426" rx="16.5" ry="54" transform="rotate(30 556.289 426)" fill="#EB0000"/>
<ellipse cx="443.289" cy="425.999" rx="16.5" ry="54" transform="rotate(-30 443.289 425.999)" fill="#EB0000"/>
<ellipse cx="500.5" cy="726.5" rx="43.5" ry="21.5" fill="#EB0000"/>
<rect x="485" y="711" width="31" height="74" rx="15.5" fill="#EB0000"/>
<rect x="399" y="810.075" width="104.29" height="17.2406" rx="8.62029" transform="rotate(-25 399 810.075)" fill="#EB0000"/>
<rect x="503.286" y="766" width="104.29" height="17.2406" rx="8.62029" transform="rotate(25 503.286 766)" fill="#EB0000"/>
</svg>
